<mxfile host="app.diagrams.net" agent="Mozilla/5.0 (Macintosh; Intel Mac OS X 10_15_7) AppleWebKit/605.1.15 (KHTML, like Gecko) Version/18.3.1 Safari/605.1.15" version="26.1.3">
  <diagram name="Page-1" id="A927nE0PmzNPtRro3MJh">
    <mxGraphModel dx="1865" dy="1078" grid="1" gridSize="10" guides="1" tooltips="1" connect="1" arrows="1" fold="1" page="1" pageScale="1" pageWidth="3300" pageHeight="4681" math="0" shadow="0">
      <root>
        <mxCell id="0" />
        <mxCell id="1" parent="0" />
        <mxCell id="NPxqP-TPArn02NDcpjDS-1" value="Deployment diagram Well-MEing" style="shape=umlFrame;whiteSpace=wrap;html=1;pointerEvents=0;recursiveResize=0;container=1;collapsible=0;width=200;height=30;" vertex="1" parent="1">
          <mxGeometry x="600" y="280" width="1240" height="620" as="geometry" />
        </mxCell>
        <mxCell id="NPxqP-TPArn02NDcpjDS-2" value="&amp;lt;&amp;lt;Device&amp;gt;&amp;gt;&lt;div&gt;&lt;b&gt;iPhone&lt;/b&gt;&lt;br&gt;&lt;/div&gt;" style="verticalAlign=top;align=center;shape=cube;size=10;direction=south;fontStyle=0;html=1;boundedLbl=1;spacingLeft=5;whiteSpace=wrap;fillColor=#dae8fc;strokeColor=#6c8ebf;" vertex="1" parent="NPxqP-TPArn02NDcpjDS-1">
          <mxGeometry x="50" y="115" width="190" height="260" as="geometry" />
        </mxCell>
        <mxCell id="NPxqP-TPArn02NDcpjDS-3" value="&amp;lt;&amp;lt;Operating system&amp;gt;&amp;gt;&lt;div&gt;&lt;b&gt;IOS&lt;/b&gt;&lt;/div&gt;" style="verticalAlign=top;align=center;shape=cube;size=10;direction=south;html=1;boundedLbl=1;spacingLeft=5;whiteSpace=wrap;flipH=0;flipV=0;fillColor=#dae8fc;strokeColor=#6c8ebf;" vertex="1" parent="NPxqP-TPArn02NDcpjDS-2">
          <mxGeometry width="160" height="150" relative="1" as="geometry">
            <mxPoint x="10" y="55" as="offset" />
          </mxGeometry>
        </mxCell>
        <mxCell id="NPxqP-TPArn02NDcpjDS-4" value="&amp;lt;&amp;lt;Artifact&amp;gt;&amp;gt;&lt;br&gt;&lt;br&gt;&lt;b&gt;Application&lt;/b&gt;" style="html=1;align=center;verticalAlign=middle;dashed=0;whiteSpace=wrap;" vertex="1" parent="NPxqP-TPArn02NDcpjDS-2">
          <mxGeometry x="20" y="125" width="130" height="60" as="geometry" />
        </mxCell>
        <mxCell id="NPxqP-TPArn02NDcpjDS-5" value="&amp;lt;&amp;lt;Device&amp;gt;&amp;gt;&lt;div&gt;&lt;b&gt;Application server&lt;/b&gt;&lt;/div&gt;" style="verticalAlign=top;align=center;shape=cube;size=10;direction=south;fontStyle=0;html=1;boundedLbl=1;spacingLeft=5;whiteSpace=wrap;fillColor=#ffe6cc;strokeColor=#d79b00;" vertex="1" parent="NPxqP-TPArn02NDcpjDS-1">
          <mxGeometry x="470" y="115" width="190" height="325" as="geometry" />
        </mxCell>
        <mxCell id="NPxqP-TPArn02NDcpjDS-8" value="" style="endArrow=none;html=1;rounded=0;entryX=0;entryY=0;entryDx=70;entryDy=160;entryPerimeter=0;exitX=0.137;exitY=-0.002;exitDx=0;exitDy=0;exitPerimeter=0;" edge="1" parent="NPxqP-TPArn02NDcpjDS-1" source="NPxqP-TPArn02NDcpjDS-5" target="NPxqP-TPArn02NDcpjDS-17">
          <mxGeometry width="50" height="50" relative="1" as="geometry">
            <mxPoint x="665" y="160" as="sourcePoint" />
            <mxPoint x="905" y="159" as="targetPoint" />
          </mxGeometry>
        </mxCell>
        <mxCell id="NPxqP-TPArn02NDcpjDS-9" value="" style="endArrow=none;html=1;rounded=0;exitX=0.779;exitY=0.002;exitDx=0;exitDy=0;exitPerimeter=0;entryX=0.675;entryY=1;entryDx=0;entryDy=0;entryPerimeter=0;" edge="1" parent="NPxqP-TPArn02NDcpjDS-1" source="NPxqP-TPArn02NDcpjDS-5">
          <mxGeometry width="50" height="50" relative="1" as="geometry">
            <mxPoint x="700" y="368.5" as="sourcePoint" />
            <mxPoint x="919.9999999999995" y="369.9374999999998" as="targetPoint" />
          </mxGeometry>
        </mxCell>
        <mxCell id="NPxqP-TPArn02NDcpjDS-10" value="Presentation tier" style="rounded=0;whiteSpace=wrap;html=1;fillColor=#dae8fc;strokeColor=#6c8ebf;" vertex="1" parent="NPxqP-TPArn02NDcpjDS-1">
          <mxGeometry y="460" width="160" height="40" as="geometry" />
        </mxCell>
        <mxCell id="NPxqP-TPArn02NDcpjDS-11" value="AI tier" style="rounded=0;whiteSpace=wrap;html=1;fillColor=#fff2cc;strokeColor=#d6b656;" vertex="1" parent="NPxqP-TPArn02NDcpjDS-1">
          <mxGeometry y="540" width="160" height="40" as="geometry" />
        </mxCell>
        <mxCell id="NPxqP-TPArn02NDcpjDS-12" value="Data tier" style="rounded=0;whiteSpace=wrap;html=1;fillColor=#d5e8d4;strokeColor=#82b366;" vertex="1" parent="NPxqP-TPArn02NDcpjDS-1">
          <mxGeometry y="580" width="160" height="40" as="geometry" />
        </mxCell>
        <mxCell id="NPxqP-TPArn02NDcpjDS-13" value="&amp;lt;&amp;lt;Device&amp;gt;&amp;gt;&lt;div&gt;&lt;b&gt;AI server&lt;/b&gt;&lt;/div&gt;" style="verticalAlign=top;align=center;shape=cube;size=10;direction=south;html=1;boundedLbl=1;spacingLeft=5;whiteSpace=wrap;flipH=0;flipV=0;fillColor=#fff2cc;strokeColor=#d6b656;" vertex="1" parent="NPxqP-TPArn02NDcpjDS-1">
          <mxGeometry width="160" height="130" relative="1" as="geometry">
            <mxPoint x="795" y="300" as="offset" />
          </mxGeometry>
        </mxCell>
        <mxCell id="NPxqP-TPArn02NDcpjDS-14" value="&amp;lt;&amp;lt;Artifact&amp;gt;&amp;gt;&lt;br&gt;DeepSeekAPI" style="html=1;align=center;verticalAlign=middle;dashed=0;whiteSpace=wrap;" vertex="1" parent="NPxqP-TPArn02NDcpjDS-1">
          <mxGeometry x="805" y="374.99807692307695" width="130" height="44.42307692307693" as="geometry" />
        </mxCell>
        <mxCell id="NPxqP-TPArn02NDcpjDS-15" value="&amp;lt;&amp;lt;Protocol&amp;gt;&amp;gt;&lt;div&gt;TCP/IP&lt;/div&gt;" style="text;html=1;align=center;verticalAlign=middle;whiteSpace=wrap;rounded=0;" vertex="1" parent="NPxqP-TPArn02NDcpjDS-1">
          <mxGeometry x="670" y="340" width="60" height="30" as="geometry" />
        </mxCell>
        <mxCell id="NPxqP-TPArn02NDcpjDS-16" value="&amp;lt;&amp;lt;Protocol&amp;gt;&amp;gt;&lt;div&gt;TCP/IP&lt;/div&gt;" style="text;html=1;align=center;verticalAlign=middle;whiteSpace=wrap;rounded=0;" vertex="1" parent="NPxqP-TPArn02NDcpjDS-1">
          <mxGeometry x="670" y="130.00000000000003" width="60" height="30" as="geometry" />
        </mxCell>
        <mxCell id="NPxqP-TPArn02NDcpjDS-17" value="&amp;lt;&amp;lt;Device&amp;gt;&amp;gt;&lt;div&gt;&lt;b&gt;Database server&lt;/b&gt;&lt;/div&gt;" style="verticalAlign=top;align=center;shape=cube;size=10;direction=south;html=1;boundedLbl=1;spacingLeft=5;whiteSpace=wrap;flipH=0;flipV=0;fillColor=#d5e8d4;strokeColor=#82b366;" vertex="1" parent="NPxqP-TPArn02NDcpjDS-1">
          <mxGeometry x="950" y="90" width="160" height="130" as="geometry" />
        </mxCell>
        <mxCell id="NPxqP-TPArn02NDcpjDS-18" value="&amp;lt;&amp;lt;Artifact&amp;gt;&amp;gt;&lt;br&gt;MongoDB" style="html=1;align=center;verticalAlign=middle;dashed=0;whiteSpace=wrap;" vertex="1" parent="NPxqP-TPArn02NDcpjDS-1">
          <mxGeometry x="965" y="159.99807692307695" width="130" height="44.42307692307693" as="geometry" />
        </mxCell>
        <mxCell id="NPxqP-TPArn02NDcpjDS-19" value="" style="endArrow=none;html=1;rounded=0;entryX=0.416;entryY=0.999;entryDx=0;entryDy=0;entryPerimeter=0;exitX=0.519;exitY=-0.005;exitDx=0;exitDy=0;exitPerimeter=0;" edge="1" parent="NPxqP-TPArn02NDcpjDS-1" source="NPxqP-TPArn02NDcpjDS-2" target="NPxqP-TPArn02NDcpjDS-5">
          <mxGeometry width="50" height="50" relative="1" as="geometry">
            <mxPoint x="600.8000000000002" y="252.7249999999999" as="sourcePoint" />
            <mxPoint x="510" y="263" as="targetPoint" />
          </mxGeometry>
        </mxCell>
        <mxCell id="NPxqP-TPArn02NDcpjDS-20" value="Application tier" style="rounded=0;whiteSpace=wrap;html=1;fillColor=#ffe6cc;strokeColor=#d79b00;" vertex="1" parent="NPxqP-TPArn02NDcpjDS-1">
          <mxGeometry y="500" width="160" height="40" as="geometry" />
        </mxCell>
        <mxCell id="NPxqP-TPArn02NDcpjDS-7" value="&amp;lt;&amp;lt;Artifact&amp;gt;&amp;gt;&lt;br&gt;&lt;b&gt;Server app&lt;/b&gt;" style="html=1;align=center;verticalAlign=middle;dashed=0;whiteSpace=wrap;" vertex="1" parent="NPxqP-TPArn02NDcpjDS-1">
          <mxGeometry x="490" y="220" width="140" height="85" as="geometry" />
        </mxCell>
        <mxCell id="NPxqP-TPArn02NDcpjDS-21" value="&amp;lt;&amp;lt;Protocol&amp;gt;&amp;gt;&lt;div&gt;TCP/IP&lt;/div&gt;" style="text;html=1;align=center;verticalAlign=middle;whiteSpace=wrap;rounded=0;" vertex="1" parent="NPxqP-TPArn02NDcpjDS-1">
          <mxGeometry x="250" y="220" width="60" height="30" as="geometry" />
        </mxCell>
      </root>
    </mxGraphModel>
  </diagram>
</mxfile>
